<svg width="16" height="16" viewBox="0 0 16 16" fill="none" xmlns="http://www.w3.org/2000/svg">
<g clip-path="url(#clip0_129_6)">
<path d="M0.67835 5.27248C4.60173 7.67337 8.52511 10.0742 12.4485 12.4751C13.0115 12.8196 13.8058 12.8861 14.3568 12.4751C14.8332 12.1197 14.923 11.3982 14.3568 11.0517C10.4334 8.6508 6.51001 6.24992 2.58663 3.84903C2.02365 3.50453 1.22929 3.43807 0.67835 3.84903C0.201913 4.20442 0.112143 4.926 0.67835 5.27248Z" fill="#FF73A5"/>
<path d="M2.31008 13.3617C6.73946 10.1053 11.1688 6.84899 15.5982 3.59265C16.8371 2.68185 14.9286 1.25857 13.6899 2.1692C9.26054 5.42554 4.83117 8.68188 0.401804 11.9382C-0.837091 12.849 1.07143 14.2723 2.31008 13.3617Z" fill="#FF73A5"/>
<path d="M6.27817 0.971885C6.15042 5.65729 6.02267 10.3427 5.89492 15.0281C5.85959 16.324 8.55831 16.3239 8.59364 15.0281C8.72139 10.3427 8.84914 5.65729 8.97689 0.971885C9.01222 -0.324026 6.3135 -0.323897 6.27817 0.971885Z" fill="#FF73A5"/>
</g>
<defs>
<clipPath id="clip0_129_6">
<rect width="16" height="16" fill="white"/>
</clipPath>
</defs>
</svg>
