<svg width="32" height="32" viewBox="0 0 32 32" fill="none" xmlns="http://www.w3.org/2000/svg">
<path fill-rule="evenodd" clip-rule="evenodd" d="M16 0C7.164 0 0 7.16267 0 16C0 23.0693 4.584 29.0667 10.9413 31.1827C11.7413 31.3307 12.0347 30.836 12.0347 30.4133C12.0347 30.032 12.02 28.772 12.0133 27.4347C7.56267 28.4027 6.62267 25.5467 6.62267 25.5467C5.89467 23.6973 4.84667 23.2053 4.84667 23.2053C3.39467 22.212 4.956 22.2333 4.956 22.2333C6.56267 22.3467 7.408 23.8827 7.408 23.8827C8.83467 26.328 11.1507 25.6213 12.064 25.212C12.208 24.1773 12.6227 23.472 13.08 23.072C9.52667 22.668 5.79067 21.296 5.79067 15.1653C5.79067 13.4187 6.416 11.9907 7.44 10.8707C7.27333 10.4667 6.72533 8.84 7.59467 6.636C7.59467 6.636 8.93867 6.20667 11.996 8.276C13.272 7.92133 14.64 7.744 16 7.73733C17.36 7.744 18.7293 7.92133 20.008 8.276C23.0613 6.20533 24.404 6.636 24.404 6.636C25.2747 8.84 24.7267 10.4667 24.5613 10.8707C25.5867 11.9907 26.208 13.4187 26.208 15.1653C26.208 21.3107 22.4653 22.664 18.9027 23.06C19.476 23.556 19.988 24.5307 19.988 26.0227C19.988 28.164 19.9693 29.8867 19.9693 30.4133C19.9693 30.8387 20.2573 31.3387 21.068 31.1813C27.4227 29.0627 32.0013 23.068 32.0013 16.0013C32 7.164 24.836 0 16 0Z" fill="#121212"/>
<path d="M6.06001 22.9733C6.02535 23.0533 5.90001 23.0773 5.78535 23.0227C5.66935 22.9707 5.60401 22.8613 5.64135 22.7827C5.67601 22.7013 5.80135 22.6787 5.91735 22.7333C6.03335 22.784 6.10001 22.8933 6.06001 22.9733Z" fill="#121212"/>
<path d="M6.70801 23.696C6.63201 23.7667 6.48267 23.7333 6.38134 23.6227C6.27601 23.5107 6.25734 23.3613 6.33467 23.2907C6.41334 23.22 6.55734 23.2533 6.66267 23.3653C6.76801 23.476 6.78801 23.624 6.70801 23.696Z" fill="#121212"/>
<path d="M7.33869 24.6173C7.24002 24.6853 7.08002 24.6213 6.98135 24.48C6.88269 24.3373 6.88269 24.1667 6.98402 24.0987C7.08269 24.0307 7.24135 24.092 7.34135 24.2333C7.43869 24.3773 7.43869 24.548 7.33869 24.6173Z" fill="#121212"/>
<path d="M8.20267 25.508C8.11467 25.6053 7.928 25.5787 7.792 25.4467C7.652 25.3173 7.61333 25.1347 7.70133 25.0373C7.79067 24.94 7.97867 24.968 8.116 25.0987C8.25467 25.228 8.296 25.412 8.20267 25.508Z" fill="#121212"/>
<path d="M9.39598 26.024C9.35731 26.1493 9.17731 26.2067 8.99598 26.1533C8.81464 26.0987 8.69598 25.952 8.73331 25.8253C8.77064 25.6987 8.95198 25.64 9.13464 25.6973C9.31464 25.7507 9.43331 25.8973 9.39598 26.024Z" fill="#121212"/>
<path d="M10.7053 26.12C10.7093 26.252 10.556 26.3613 10.3653 26.364C10.1747 26.368 10.0187 26.2613 10.0173 26.132C10.0173 25.9987 10.168 25.8907 10.3587 25.8867C10.5493 25.8827 10.7053 25.9893 10.7053 26.12Z" fill="#121212"/>
<path d="M11.924 25.9133C11.9467 26.0413 11.8147 26.1747 11.6253 26.2093C11.44 26.244 11.268 26.164 11.244 26.036C11.2213 25.904 11.356 25.772 11.5413 25.7373C11.7293 25.704 11.9 25.7813 11.924 25.9133Z" fill="#121212"/>
</svg>
