<svg width="32" height="28" viewBox="0 0 32 28" fill="none" xmlns="http://www.w3.org/2000/svg">
<path d="M30.6693 26.4028H30.972L30.392 25.5255C30.7467 25.5255 30.9347 25.3002 30.9373 25.0242C30.9373 25.0135 30.9373 25.0015 30.936 24.9908C30.936 24.6148 30.7093 24.4348 30.244 24.4348H29.492V26.4028H29.7747V25.5455H30.1227L30.6693 26.4028ZM30.1027 25.3228H29.7747V24.6575H30.1907C30.4053 24.6575 30.6507 24.6922 30.6507 24.9735C30.6507 25.2962 30.404 25.3228 30.1027 25.3228Z" fill="#121212"/>
<path d="M23.0547 23.0548H19.0453V16.7762C19.0453 15.2788 19.0187 13.3522 16.96 13.3522C14.872 13.3522 14.552 14.9828 14.552 16.6682V23.0548H10.544V10.1428H14.3933V11.9068H14.4467C15.232 10.5655 16.6907 9.76418 18.244 9.82152C22.308 9.82152 23.056 12.4948 23.056 15.9708L23.0547 23.0548ZM6.02 8.37752C4.73467 8.37752 3.69333 7.33618 3.69333 6.05085C3.69333 4.76552 4.73467 3.72418 6.02 3.72418C7.30533 3.72418 8.34667 4.76552 8.34667 6.05085C8.34667 7.33618 7.30533 8.37752 6.02 8.37752ZM8.024 23.0548H4.01067V10.1428H8.024V23.0548ZM25.0533 0.00151546H1.996C0.906667 -0.0104845 0.0133333 0.862849 0 1.95218V25.1042C0.0133333 26.1948 0.906667 27.0682 1.996 27.0562H25.0533C26.1453 27.0695 27.0427 26.1962 27.0573 25.1042V1.95085C27.0413 0.858849 26.144 -0.0144846 25.0533 0.00018206" fill="#121212"/>
<path d="M30.1373 23.5588C29.1187 23.5682 28.3 24.4028 28.3106 25.4215C28.32 26.4402 29.1546 27.2588 30.1733 27.2482C31.192 27.2388 32.0107 26.4042 32 25.3855C31.9907 24.3802 31.1773 23.5682 30.1733 23.5588H30.1373ZM30.18 27.0362C29.2867 27.0508 28.508 26.3402 28.4933 25.4468C28.4787 24.5535 29.1906 23.8175 30.084 23.8028C30.9773 23.7882 31.7133 24.5002 31.728 25.3935C31.728 25.4028 31.728 25.4108 31.728 25.4202C31.7466 26.2935 31.0533 27.0175 30.18 27.0362H30.1387Z" fill="#121212"/>
</svg>
