<svg width="16" height="24" viewBox="0 0 16 24" fill="none" xmlns="http://www.w3.org/2000/svg">
<g clip-path="url(#clip0_136_40)">
<path fill-rule="evenodd" clip-rule="evenodd" d="M12.042 11.8265C12.0196 11.9656 11.9652 12.0979 11.8827 12.2137C11.8002 12.3295 11.6918 12.4256 11.5656 12.4949C11.3116 12.6543 11.0892 12.734 10.8643 12.8137C10.3853 12.9744 9.88105 13.1351 9.3478 13.3215C8.7854 13.5078 8.2812 13.6943 7.8313 13.8293C7.2702 14.0157 6.7369 14.1763 6.2301 14.3627C5.8488 14.5213 5.4906 14.7278 5.16485 14.9772C4.86185 15.2438 4.59743 15.5492 4.3788 15.8848C4.15384 16.2575 4.01224 16.7383 4.01224 17.2987C4.01224 18.421 4.29278 19.2745 4.85518 19.8081C5.41625 20.3698 6.45635 20.6359 7.998 20.6359C9.5701 20.6359 10.6367 20.3428 11.2004 19.7554C11.7601 19.1679 12.0407 18.3413 12.0407 17.2743V11.8265H12.042ZM7.99935 0C10.7518 0 12.7725 0.507765 14.0627 1.54901C15.3542 2.56454 16 3.87059 16 5.4183V18.6074C16 19.1409 15.8889 19.7283 15.693 20.3685C15.4945 21.0112 15.1028 21.5975 14.4848 22.1296C13.896 22.6657 13.0822 23.1194 12.0434 23.4665C11.0045 23.8136 9.65745 24 8.00065 24C6.34655 24 4.99678 23.8136 3.95931 23.4665C2.92184 23.1194 2.10669 22.6657 1.51783 22.1296C0.97002 21.6501 0.55503 21.0445 0.310975 20.3685C0.11248 19.7296 0 19.1421 0 18.6087V16.5005C0 15.3783 0.308329 14.337 0.92631 13.4282C1.54429 12.4949 2.41369 11.8548 3.53717 11.4537C4.09826 11.2673 4.74402 11.0809 5.47315 10.8405C6.2036 10.5988 6.87585 10.3584 7.55075 10.1463C8.2256 9.93165 8.8145 9.717 9.31865 9.5293C9.6229 9.41105 9.93195 9.3047 10.245 9.2105L10.7505 8.9701C10.9489 8.8634 11.1435 8.70275 11.3406 8.48935C11.5365 8.27725 11.7046 8.03685 11.8462 7.76945C11.9958 7.47995 12.0729 7.16015 12.0711 6.8362V5.98135C12.0732 5.66805 12.0055 5.358 11.8727 5.0725C11.7615 4.75115 11.5365 4.45806 11.2282 4.19197C10.9199 3.92459 10.4978 3.71119 9.99355 3.54923C9.48805 3.39111 8.8158 3.31013 8.05625 3.31013C6.48415 3.31013 5.44535 3.60579 4.88429 4.21768C4.40791 4.75244 4.12737 5.4196 4.07179 6.16645C4.07179 6.32715 3.93152 6.43385 3.76214 6.43385L0.338764 6.48785C0.257445 6.4882 0.179277 6.4573 0.121282 6.40195C0.063286 6.34655 0.0301588 6.27115 0.0291125 6.1922V5.4209C0.0291125 4.67145 0.170705 3.97729 0.479034 3.31013C0.788685 2.64167 1.2664 2.08248 1.91085 1.60043C2.55661 1.12094 3.39956 0.721155 4.40923 0.453776C5.39245 0.132405 6.5993 0 8.002 0H7.99935Z" fill="#121212"/>
</g>
<defs>
<clipPath id="clip0_136_40">
<rect width="16" height="24" fill="white"/>
</clipPath>
</defs>
</svg>
