<svg width="30" height="48" viewBox="0 0 30 48" fill="none" xmlns="http://www.w3.org/2000/svg">
<path d="M6.02019 11.3501C8.42829 7.38798 14.9108 4.08876 19.2033 6.89272C22.2445 8.87929 22.8898 12.3012 21.6727 15.3123C20.499 16.6909 18.6309 18.2563 16.9647 19.3315C15.1105 20.5281 12.0397 22.6612 10.8363 24.2271C8.00651 27.9095 9.29697 31.3574 9.52507 35.424C9.70194 38.5769 16.7358 38.5929 16.5581 35.424C16.3609 31.9096 15.9498 27.7289 19.2033 24.7649C20.9646 23.1604 23.4403 21.994 25.3775 20.5005C27.3481 18.9812 29.6396 15.9086 29.499 13.8265C28.8969 4.91164 24.6828 2.93059 24.6828 2.93059C24.6828 2.93059 16.9647 -2.02209 9.63231 0.949507C2.29993 3.92111 0 9.86438 0 9.86438C0 9.86438 4.81617 12.3407 6.02019 11.3501Z" fill="#FF73A5"/>
<path d="M15.0143 42.4558L14.2047 42.3148C13.7246 42.1972 13.2444 42.1804 12.7643 42.2644C12.2836 42.2814 11.8359 42.393 11.4213 42.5992C11.0004 42.7765 10.6626 43.0187 10.4079 43.3259C10.0886 43.5984 9.87311 43.9182 9.76135 44.2854L9.63232 45.0354C9.63435 45.5447 9.79874 46.0194 10.1255 46.4595L10.6903 47.0305C11.141 47.3802 11.6723 47.6221 12.2842 47.7561L13.0938 47.8971C13.5739 48.0147 14.054 48.0315 14.5342 47.9475C15.0149 47.9305 15.4625 47.8189 15.8772 47.6127C16.2981 47.4354 16.6359 47.1932 16.8906 46.886C17.2099 46.6135 17.4254 46.2937 17.5371 45.9265L17.6662 45.1765C17.6641 44.6672 17.4997 44.1925 17.173 43.7524L16.6082 43.1814C16.1575 42.8317 15.6262 42.5898 15.0143 42.4558Z" fill="#FF73A5"/>
</svg>
